<?xml version="1.0" standalone="no"?>
<!DOCTYPE svg PUBLIC "-//W3C//DTD SVG 20010904//EN"
 "http://www.w3.org/TR/2001/REC-SVG-20010904/DTD/svg10.dtd">
<svg version="1.0" xmlns="http://www.w3.org/2000/svg"
 width="482.000000pt" height="984.000000pt" viewBox="0 0 482.000000 984.000000"
 preserveAspectRatio="xMidYMid meet">

<g transform="translate(0.000000,984.000000) scale(0.100000,-0.100000)"
fill="#000000" stroke="none">
<path d="M636 9815 c-298 -60 -487 -229 -567 -510 -23 -79 -24 -89 -27 -659
-2 -488 -5 -582 -17 -600 -21 -30 -21 -294 0 -322 21 -28 22 -296 0 -314 -13
-11 -15 -61 -15 -340 0 -279 2 -329 15 -340 22 -18 22 -198 0 -206 -22 -9 -23
-635 0 -654 13 -11 15 -325 17 -2634 l3 -2621 23 -80 c76 -261 248 -428 512
-498 l85 -22 1745 0 c1975 0 1803 -7 1990 82 221 106 351 315 380 609 6 61 10
1121 10 2752 0 1761 3 2652 10 2652 7 0 10 178 10 514 0 333 -4 517 -10 521
-7 4 -10 331 -10 948 0 529 -5 986 -10 1041 -30 310 -180 533 -421 629 -166
66 -15 61 -1924 63 -1433 2 -1742 0 -1799 -11z m3982 -5002 c-3 -3980 -4
-4181 -21 -4238 -42 -142 -115 -248 -213 -314 -25 -16 -83 -43 -127 -58 l-82
-28 -1765 0 -1765 0 -82 28 c-187 65 -292 186 -343 398 -20 83 -20 109 -20
4227 l0 4142 803 1 c834 2 3267 14 3490 17 l127 2 -2 -4177z"/>
</g>
</svg>
